<svg width="512" height="512" viewBox="0 0 512 512" fill="none" xmlns="http://www.w3.org/2000/svg">
  <defs>
    <linearGradient id="grad1" x1="0%" y1="0%" x2="100%" y2="100%">
      <stop offset="0%" style="stop-color:#667eea;stop-opacity:1" />
      <stop offset="100%" style="stop-color:#764ba2;stop-opacity:1" />
    </linearGradient>
  </defs>
  
  <!-- Background circle -->
  <circle cx="256" cy="256" r="240" fill="url(#grad1)" stroke="#4a5568" stroke-width="8"/>
  
  <!-- Eye outline -->
  <ellipse cx="256" cy="256" rx="120" ry="80" fill="none" stroke="white" stroke-width="12"/>
  
  <!-- Eye pupil -->
  <circle cx="256" cy="256" r="40" fill="white"/>
  
  <!-- Eye highlight -->
  <circle cx="240" cy="240" r="12" fill="rgba(255,255,255,0.8)"/>
  
  <!-- Eyelashes -->
  <path d="M 136 200 Q 120 180 104 200" stroke="white" stroke-width="4" fill="none"/>
  <path d="M 376 200 Q 392 180 408 200" stroke="white" stroke-width="4" fill="none"/>
  <path d="M 136 312 Q 120 332 104 312" stroke="white" stroke-width="4" fill="none"/>
  <path d="M 376 312 Q 392 332 408 312" stroke="white" stroke-width="4" fill="none"/>
  
  <!-- Scan lines effect -->
  <rect x="136" y="220" width="240" height="2" fill="rgba(255,255,255,0.3)"/>
  <rect x="136" y="240" width="240" height="2" fill="rgba(255,255,255,0.2)"/>
  <rect x="136" y="260" width="240" height="2" fill="rgba(255,255,255,0.3)"/>
  <rect x="136" y="280" width="240" height="2" fill="rgba(255,255,255,0.2)"/>
  <rect x="136" y="300" width="240" height="2" fill="rgba(255,255,255,0.3)"/>
</svg> 